<svg xmlns="http://www.w3.org/2000/svg" xmlns:xlink="http://www.w3.org/1999/xlink" width="1080" zoomAndPan="magnify" viewBox="0 0 810 809.999993" height="1080" preserveAspectRatio="xMidYMid meet" version="1.0"><defs><clipPath id="1d67afda4f"><path d="M 41 34.402344 L 774 34.402344 L 774 766 L 41 766 Z M 41 34.402344 " clip-rule="nonzero"/></clipPath></defs><g clip-path="url(#1d67afda4f)"><path fill="#ffffff" d="M 406.546875 33.570312 C 404.554688 33.597656 402.566406 33.722656 400.589844 33.949219 C 398.609375 34.171875 396.644531 34.492188 394.699219 34.910156 C 392.75 35.328125 390.828125 35.839844 388.929688 36.445312 C 387.03125 37.050781 385.167969 37.746094 383.339844 38.535156 C 381.511719 39.324219 379.722656 40.203125 377.980469 41.164062 C 376.238281 42.128906 374.546875 43.175781 372.90625 44.308594 C 371.265625 45.4375 369.683594 46.644531 368.164062 47.929688 C 366.640625 49.214844 365.1875 50.574219 363.796875 52 C 362.410156 53.429688 361.09375 54.921875 359.851562 56.480469 C 358.609375 58.039062 357.449219 59.652344 356.363281 61.324219 C 355.28125 62.996094 354.28125 64.714844 353.367188 66.484375 C 352.453125 68.253906 351.628906 70.066406 350.890625 71.917969 C 350.15625 73.765625 349.511719 75.648438 348.960938 77.5625 C 348.40625 79.476562 347.953125 81.414062 347.589844 83.371094 C 347.226562 85.332031 346.964844 87.304688 346.796875 89.289062 C 346.628906 91.273438 346.558594 93.261719 346.585938 95.253906 L 346.585938 338.660156 L 103.175781 338.660156 C 102.171875 338.648438 101.164062 338.660156 100.160156 338.695312 C 99.15625 338.730469 98.152344 338.789062 97.152344 338.875 C 96.152344 338.960938 95.152344 339.070312 94.15625 339.207031 C 93.160156 339.339844 92.167969 339.5 91.179688 339.683594 C 90.191406 339.867188 89.210938 340.074219 88.234375 340.308594 C 87.253906 340.539062 86.285156 340.796875 85.320312 341.078125 C 84.355469 341.359375 83.394531 341.664062 82.445312 341.992188 C 81.496094 342.320312 80.554688 342.671875 79.621094 343.042969 C 78.691406 343.417969 77.769531 343.816406 76.855469 344.238281 C 75.941406 344.65625 75.039062 345.101562 74.148438 345.566406 C 73.257812 346.03125 72.378906 346.519531 71.511719 347.027344 C 70.644531 347.535156 69.792969 348.066406 68.953125 348.617188 C 68.113281 349.167969 67.285156 349.738281 66.472656 350.328125 C 65.660156 350.921875 64.863281 351.535156 64.082031 352.164062 C 63.300781 352.796875 62.535156 353.445312 61.785156 354.117188 C 61.035156 354.785156 60.300781 355.472656 59.585938 356.179688 C 58.871094 356.882812 58.171875 357.605469 57.492188 358.347656 C 56.8125 359.085938 56.152344 359.84375 55.511719 360.617188 C 54.867188 361.390625 54.246094 362.175781 53.640625 362.980469 C 53.039062 363.785156 52.457031 364.601562 51.894531 365.433594 C 51.332031 366.269531 50.789062 367.113281 50.265625 367.972656 C 49.746094 368.832031 49.246094 369.703125 48.769531 370.589844 C 48.292969 371.472656 47.835938 372.367188 47.402344 373.277344 C 46.96875 374.183594 46.558594 375.097656 46.171875 376.027344 C 45.785156 376.953125 45.417969 377.890625 45.078125 378.835938 C 44.734375 379.78125 44.417969 380.734375 44.125 381.695312 C 43.828125 382.65625 43.558594 383.621094 43.3125 384.597656 C 43.066406 385.570312 42.84375 386.550781 42.648438 387.535156 C 42.449219 388.519531 42.277344 389.511719 42.128906 390.503906 C 41.976562 391.5 41.855469 392.496094 41.753906 393.496094 C 41.65625 394.496094 41.582031 395.496094 41.53125 396.5 C 41.480469 397.503906 41.457031 398.507812 41.457031 399.515625 C 41.457031 400.519531 41.480469 401.523438 41.53125 402.527344 C 41.582031 403.53125 41.65625 404.53125 41.753906 405.53125 C 41.855469 406.53125 41.976562 407.53125 42.128906 408.523438 C 42.277344 409.519531 42.449219 410.507812 42.648438 411.492188 C 42.84375 412.476562 43.066406 413.457031 43.3125 414.433594 C 43.558594 415.40625 43.828125 416.375 44.125 417.335938 C 44.417969 418.296875 44.734375 419.25 45.078125 420.195312 C 45.417969 421.140625 45.785156 422.074219 46.171875 423.003906 C 46.558594 423.929688 46.96875 424.847656 47.402344 425.753906 C 47.835938 426.660156 48.292969 427.554688 48.769531 428.441406 C 49.246094 429.324219 49.746094 430.195312 50.265625 431.054688 C 50.789062 431.914062 51.332031 432.761719 51.894531 433.59375 C 52.457031 434.425781 53.039062 435.242188 53.640625 436.046875 C 54.246094 436.851562 54.867188 437.640625 55.511719 438.414062 C 56.152344 439.183594 56.8125 439.941406 57.492188 440.683594 C 58.171875 441.421875 58.871094 442.144531 59.585938 442.851562 C 60.300781 443.554688 61.035156 444.242188 61.785156 444.914062 C 62.535156 445.582031 63.300781 446.234375 64.082031 446.863281 C 64.863281 447.496094 65.660156 448.105469 66.472656 448.699219 C 67.285156 449.289062 68.113281 449.863281 68.953125 450.414062 C 69.792969 450.964844 70.644531 451.492188 71.511719 452.003906 C 72.378906 452.511719 73.257812 452.996094 74.148438 453.460938 C 75.039062 453.929688 75.941406 454.371094 76.855469 454.792969 C 77.765625 455.210938 78.691406 455.609375 79.621094 455.984375 C 80.554688 456.359375 81.496094 456.710938 82.445312 457.039062 C 83.394531 457.367188 84.355469 457.671875 85.320312 457.949219 C 86.285156 458.230469 87.253906 458.488281 88.234375 458.722656 C 89.210938 458.953125 90.191406 459.160156 91.179688 459.34375 C 92.167969 459.53125 93.160156 459.6875 94.15625 459.824219 C 95.152344 459.957031 96.152344 460.066406 97.152344 460.152344 C 98.152344 460.238281 99.15625 460.300781 100.160156 460.335938 C 101.164062 460.371094 102.171875 460.378906 103.175781 460.367188 L 346.585938 460.367188 L 346.585938 703.777344 C 346.570312 704.78125 346.582031 705.785156 346.617188 706.789062 C 346.652344 707.792969 346.710938 708.796875 346.796875 709.796875 C 346.882812 710.800781 346.992188 711.796875 347.128906 712.792969 C 347.261719 713.789062 347.421875 714.78125 347.605469 715.769531 C 347.789062 716.757812 347.996094 717.742188 348.230469 718.71875 C 348.460938 719.695312 348.71875 720.667969 349 721.632812 C 349.28125 722.597656 349.585938 723.554688 349.914062 724.503906 C 350.242188 725.453125 350.59375 726.394531 350.96875 727.328125 C 351.339844 728.261719 351.738281 729.183594 352.160156 730.097656 C 352.578125 731.007812 353.023438 731.910156 353.488281 732.800781 C 353.953125 733.691406 354.441406 734.570312 354.949219 735.4375 C 355.457031 736.304688 355.988281 737.15625 356.539062 738 C 357.089844 738.839844 357.660156 739.664062 358.253906 740.476562 C 358.84375 741.289062 359.457031 742.085938 360.085938 742.867188 C 360.71875 743.652344 361.367188 744.417969 362.039062 745.164062 C 362.707031 745.914062 363.394531 746.648438 364.101562 747.363281 C 364.804688 748.078125 365.527344 748.777344 366.269531 749.457031 C 367.007812 750.136719 367.765625 750.796875 368.539062 751.441406 C 369.3125 752.082031 370.097656 752.707031 370.902344 753.308594 C 371.707031 753.910156 372.523438 754.496094 373.359375 755.058594 C 374.191406 755.621094 375.035156 756.164062 375.894531 756.683594 C 376.753906 757.203125 377.628906 757.703125 378.511719 758.179688 C 379.394531 758.660156 380.289062 759.113281 381.199219 759.546875 C 382.105469 759.980469 383.019531 760.390625 383.949219 760.777344 C 384.875 761.167969 385.8125 761.53125 386.757812 761.871094 C 387.703125 762.214844 388.65625 762.53125 389.617188 762.828125 C 390.578125 763.121094 391.542969 763.390625 392.519531 763.636719 C 393.492188 763.882812 394.472656 764.105469 395.457031 764.304688 C 396.441406 764.5 397.433594 764.675781 398.425781 764.824219 C 399.421875 764.972656 400.417969 765.097656 401.417969 765.195312 C 402.417969 765.296875 403.417969 765.371094 404.421875 765.417969 C 405.425781 765.46875 406.429688 765.492188 407.4375 765.492188 C 408.441406 765.492188 409.445312 765.46875 410.449219 765.417969 C 411.453125 765.371094 412.453125 765.296875 413.453125 765.195312 C 414.453125 765.097656 415.453125 764.972656 416.445312 764.824219 C 417.441406 764.675781 418.429688 764.5 419.414062 764.304688 C 420.398438 764.105469 421.378906 763.882812 422.355469 763.636719 C 423.328125 763.390625 424.296875 763.121094 425.257812 762.828125 C 426.21875 762.53125 427.171875 762.214844 428.117188 761.871094 C 429.0625 761.53125 429.996094 761.167969 430.925781 760.777344 C 431.851562 760.390625 432.769531 759.980469 433.675781 759.546875 C 434.582031 759.113281 435.476562 758.660156 436.363281 758.179688 C 437.246094 757.703125 438.117188 757.203125 438.976562 756.683594 C 439.835938 756.164062 440.683594 755.621094 441.515625 755.058594 C 442.347656 754.496094 443.164062 753.910156 443.96875 753.308594 C 444.773438 752.707031 445.5625 752.082031 446.335938 751.441406 C 447.109375 750.796875 447.863281 750.136719 448.605469 749.457031 C 449.34375 748.777344 450.066406 748.078125 450.773438 747.363281 C 451.476562 746.648438 452.164062 745.914062 452.835938 745.164062 C 453.503906 744.417969 454.15625 743.652344 454.785156 742.867188 C 455.417969 742.085938 456.027344 741.289062 456.621094 740.476562 C 457.210938 739.664062 457.785156 738.839844 458.335938 738 C 458.886719 737.15625 459.414062 736.304688 459.925781 735.4375 C 460.433594 734.570312 460.917969 733.691406 461.386719 732.800781 C 461.851562 731.910156 462.292969 731.007812 462.714844 730.097656 C 463.132812 729.183594 463.53125 728.261719 463.90625 727.328125 C 464.28125 726.394531 464.632812 725.453125 464.960938 724.503906 C 465.289062 723.554688 465.59375 722.597656 465.875 721.632812 C 466.152344 720.667969 466.410156 719.695312 466.644531 718.71875 C 466.875 717.742188 467.082031 716.757812 467.265625 715.769531 C 467.453125 714.78125 467.609375 713.789062 467.746094 712.792969 C 467.878906 711.796875 467.988281 710.800781 468.074219 709.796875 C 468.160156 708.796875 468.222656 707.792969 468.257812 706.789062 C 468.292969 705.785156 468.304688 704.78125 468.289062 703.777344 L 468.289062 460.367188 L 711.699219 460.367188 C 712.703125 460.378906 713.707031 460.371094 714.710938 460.335938 C 715.714844 460.300781 716.71875 460.238281 717.71875 460.152344 C 718.722656 460.066406 719.71875 459.957031 720.714844 459.824219 C 721.710938 459.6875 722.703125 459.527344 723.691406 459.34375 C 724.679688 459.160156 725.664062 458.953125 726.640625 458.722656 C 727.617188 458.488281 728.589844 458.230469 729.554688 457.949219 C 730.519531 457.671875 731.476562 457.367188 732.425781 457.039062 C 733.375 456.710938 734.316406 456.359375 735.25 455.984375 C 736.183594 455.609375 737.105469 455.210938 738.019531 454.789062 C 738.929688 454.371094 739.832031 453.929688 740.722656 453.460938 C 741.613281 452.996094 742.492188 452.511719 743.359375 452.003906 C 744.226562 451.492188 745.082031 450.964844 745.921875 450.414062 C 746.761719 449.863281 747.585938 449.289062 748.398438 448.699219 C 749.210938 448.105469 750.007812 447.496094 750.789062 446.863281 C 751.574219 446.234375 752.339844 445.582031 753.089844 444.914062 C 753.835938 444.242188 754.570312 443.554688 755.285156 442.851562 C 756 442.144531 756.699219 441.421875 757.378906 440.683594 C 758.058594 439.941406 758.71875 439.183594 759.363281 438.414062 C 760.003906 437.640625 760.628906 436.851562 761.230469 436.046875 C 761.835938 435.242188 762.417969 434.425781 762.980469 433.59375 C 763.542969 432.761719 764.085938 431.914062 764.605469 431.054688 C 765.125 430.195312 765.625 429.324219 766.101562 428.4375 C 766.582031 427.554688 767.035156 426.660156 767.46875 425.753906 C 767.902344 424.847656 768.3125 423.929688 768.699219 423.003906 C 769.089844 422.074219 769.453125 421.140625 769.796875 420.195312 C 770.136719 419.25 770.453125 418.296875 770.75 417.335938 C 771.042969 416.375 771.3125 415.40625 771.558594 414.433594 C 771.804688 413.457031 772.027344 412.476562 772.226562 411.492188 C 772.421875 410.507812 772.597656 409.519531 772.746094 408.523438 C 772.894531 407.53125 773.019531 406.53125 773.117188 405.53125 C 773.21875 404.53125 773.292969 403.53125 773.339844 402.527344 C 773.390625 401.523438 773.417969 400.519531 773.417969 399.515625 C 773.417969 398.507812 773.390625 397.503906 773.339844 396.5 C 773.292969 395.496094 773.21875 394.496094 773.117188 393.496094 C 773.019531 392.496094 772.894531 391.5 772.746094 390.503906 C 772.597656 389.511719 772.421875 388.519531 772.226562 387.535156 C 772.027344 386.550781 771.804688 385.570312 771.558594 384.597656 C 771.3125 383.621094 771.042969 382.65625 770.75 381.695312 C 770.453125 380.734375 770.136719 379.78125 769.796875 378.835938 C 769.453125 377.890625 769.089844 376.953125 768.699219 376.027344 C 768.3125 375.097656 767.902344 374.183594 767.46875 373.277344 C 767.035156 372.367188 766.582031 371.472656 766.101562 370.589844 C 765.625 369.703125 765.125 368.832031 764.605469 367.972656 C 764.085938 367.113281 763.542969 366.269531 762.980469 365.433594 C 762.417969 364.601562 761.835938 363.785156 761.230469 362.980469 C 760.628906 362.175781 760.003906 361.390625 759.363281 360.617188 C 758.71875 359.84375 758.058594 359.085938 757.378906 358.347656 C 756.699219 357.605469 756 356.882812 755.285156 356.179688 C 754.570312 355.472656 753.835938 354.785156 753.089844 354.117188 C 752.339844 353.445312 751.574219 352.796875 750.789062 352.164062 C 750.007812 351.535156 749.210938 350.921875 748.398438 350.328125 C 747.585938 349.738281 746.761719 349.167969 745.921875 348.617188 C 745.082031 348.066406 744.226562 347.535156 743.359375 347.027344 C 742.492188 346.519531 741.613281 346.03125 740.722656 345.566406 C 739.832031 345.101562 738.929688 344.65625 738.019531 344.238281 C 737.105469 343.816406 736.183594 343.417969 735.25 343.042969 C 734.316406 342.671875 733.375 342.320312 732.425781 341.992188 C 731.476562 341.664062 730.519531 341.359375 729.554688 341.078125 C 728.589844 340.796875 727.617188 340.539062 726.640625 340.308594 C 725.664062 340.074219 724.679688 339.867188 723.691406 339.683594 C 722.703125 339.5 721.710938 339.339844 720.714844 339.207031 C 719.71875 339.070312 718.722656 338.960938 717.71875 338.875 C 716.71875 338.789062 715.714844 338.730469 714.710938 338.695312 C 713.707031 338.660156 712.703125 338.648438 711.699219 338.660156 L 468.289062 338.660156 L 468.289062 95.253906 C 468.300781 94.238281 468.289062 93.226562 468.253906 92.210938 C 468.21875 91.199219 468.15625 90.1875 468.066406 89.175781 C 467.980469 88.167969 467.867188 87.160156 467.730469 86.15625 C 467.59375 85.148438 467.429688 84.148438 467.242188 83.152344 C 467.054688 82.15625 466.84375 81.164062 466.605469 80.179688 C 466.367188 79.195312 466.105469 78.214844 465.820312 77.242188 C 465.535156 76.269531 465.222656 75.304688 464.886719 74.347656 C 464.554688 73.390625 464.195312 72.441406 463.8125 71.503906 C 463.433594 70.5625 463.027344 69.632812 462.597656 68.714844 C 462.171875 67.796875 461.71875 66.886719 461.246094 65.992188 C 460.773438 65.09375 460.277344 64.210938 459.757812 63.339844 C 459.242188 62.46875 458.703125 61.609375 458.140625 60.765625 C 457.582031 59.917969 457 59.089844 456.398438 58.273438 C 455.792969 57.457031 455.171875 56.65625 454.53125 55.871094 C 453.886719 55.089844 453.226562 54.320312 452.546875 53.570312 C 451.863281 52.816406 451.164062 52.082031 450.449219 51.367188 C 449.730469 50.648438 448.996094 49.953125 448.246094 49.273438 C 447.492188 48.589844 446.722656 47.929688 445.9375 47.289062 C 445.152344 46.648438 444.351562 46.027344 443.535156 45.425781 C 442.71875 44.824219 441.886719 44.242188 441.042969 43.683594 C 440.199219 43.125 439.339844 42.585938 438.46875 42.066406 C 437.59375 41.550781 436.710938 41.054688 435.8125 40.582031 C 434.917969 40.109375 434.007812 39.660156 433.089844 39.234375 C 432.167969 38.804688 431.238281 38.402344 430.300781 38.019531 C 429.359375 37.640625 428.410156 37.28125 427.453125 36.949219 C 426.496094 36.613281 425.53125 36.304688 424.558594 36.019531 C 423.585938 35.734375 422.605469 35.472656 421.621094 35.238281 C 420.632812 35 419.640625 34.789062 418.644531 34.601562 C 417.648438 34.417969 416.648438 34.253906 415.644531 34.117188 C 414.640625 33.980469 413.632812 33.871094 412.621094 33.785156 C 411.609375 33.695312 410.597656 33.636719 409.585938 33.601562 C 408.574219 33.5625 407.558594 33.554688 406.546875 33.570312 Z M 406.546875 33.570312 " fill-opacity="1" fill-rule="nonzero"/></g></svg>