<svg xmlns="http://www.w3.org/2000/svg" xmlns:xlink="http://www.w3.org/1999/xlink" width="1080" zoomAndPan="magnify" viewBox="0 0 810 809.999993" height="1080" preserveAspectRatio="xMidYMid meet" version="1.0"><defs><clipPath id="58587b1ae4"><path d="M 33.179688 33.179688 L 771 33.179688 L 771 772 L 33.179688 772 Z M 33.179688 33.179688 " clip-rule="nonzero"/></clipPath></defs><g clip-path="url(#58587b1ae4)"><path fill="#ffffff" d="M 510.371094 576.070312 L 692.210938 757.847656 C 710.214844 775.847656 739.453125 775.84375 757.457031 757.839844 C 775.453125 739.828125 775.449219 710.589844 757.445312 692.585938 L 575.726562 510.9375 C 612.285156 461.214844 633.890625 399.8125 633.890625 333.398438 C 633.890625 167.703125 499.371094 33.179688 333.675781 33.179688 C 167.980469 33.179688 33.457031 167.703125 33.457031 333.398438 C 33.457031 499.09375 167.980469 633.613281 333.675781 633.613281 C 399.707031 633.613281 460.78125 612.253906 510.371094 576.070312 Z M 333.675781 125.453125 C 448.441406 125.453125 541.625 218.628906 541.625 333.398438 C 541.625 448.164062 448.441406 541.347656 333.675781 541.347656 C 218.90625 541.347656 125.730469 448.164062 125.730469 333.398438 C 125.730469 218.628906 218.90625 125.453125 333.675781 125.453125 Z M 333.675781 125.453125 " fill-opacity="1" fill-rule="evenodd"/></g></svg>