<svg xmlns="http://www.w3.org/2000/svg" xmlns:xlink="http://www.w3.org/1999/xlink" width="1080" zoomAndPan="magnify" viewBox="0 0 810 809.999993" height="1080" preserveAspectRatio="xMidYMid meet" version="1.0"><defs><clipPath id="c2e0697d53"><path d="M 34.714844 81 L 776 81 L 776 707 L 34.714844 707 Z M 34.714844 81 " clip-rule="nonzero"/></clipPath><clipPath id="81d3e53611"><path d="M 64.074219 184.464844 C 4.027344 283.390625 46.332031 379.679688 99.492188 430.78125 L 369.738281 690.058594 C 392.367188 711.765625 428.136719 711.609375 450.570312 689.699219 L 714.601562 431.847656 C 764.046875 376.875 783 318.558594 772.472656 253.628906 C 757.933594 163.804688 683.914062 94.117188 592.476562 84.167969 C 536.398438 78.128906 482.222656 94 439.941406 129.132812 C 428.5625 138.585938 418.390625 149.15625 409.527344 160.644531 C 399.007812 147.5625 386.675781 135.601562 372.726562 124.996094 C 324.105469 88.046875 262.214844 73.375 202.765625 84.785156 C 146.457031 95.660156 95.917969 131.980469 64.074219 184.464844 Z M 64.074219 184.464844 " clip-rule="nonzero"/></clipPath><clipPath id="8860636605"><path d="M 34.714844 81.003906 L 774.964844 81.003906 L 774.964844 707 L 34.714844 707 Z M 34.714844 81.003906 " clip-rule="nonzero"/></clipPath><clipPath id="8c9613a55a"><path d="M 64.074219 184.46875 C 4.027344 283.390625 46.332031 379.679688 99.492188 430.78125 L 369.734375 690.054688 C 392.363281 711.765625 428.132812 711.605469 450.566406 689.695312 L 714.597656 431.847656 C 764.042969 376.875 782.996094 318.5625 772.46875 253.628906 C 757.929688 163.808594 683.910156 94.121094 592.472656 84.167969 C 536.394531 78.132812 482.21875 94 439.941406 129.136719 C 428.558594 138.589844 418.386719 149.15625 409.523438 160.644531 C 399.003906 147.566406 386.671875 135.601562 372.722656 125 C 324.101562 88.046875 262.210938 73.375 202.761719 84.785156 C 146.457031 95.664062 95.917969 131.984375 64.074219 184.46875 Z M 64.074219 184.46875 " clip-rule="nonzero"/></clipPath></defs><g clip-path="url(#c2e0697d53)"><g clip-path="url(#81d3e53611)"><path fill="#9144ee" d="M 34.714844 81 L 776.371094 81 L 776.371094 729 L 34.714844 729 Z M 34.714844 81 " fill-opacity="1" fill-rule="nonzero"/></g></g><g clip-path="url(#8860636605)"><g clip-path="url(#8c9613a55a)"><path stroke-linecap="butt" transform="matrix(0.75, 0, 0, 0.75, 34.714286, 81.002214)" fill="none" stroke-linejoin="miter" d="M 39.146578 137.955388 C -40.915926 269.851228 15.490327 398.236651 86.370539 466.372071 L 446.693474 812.070005 C 476.86535 841.017923 524.558061 840.804382 554.469521 811.590838 L 906.511205 467.793946 C 972.438292 394.497067 997.709127 316.747064 983.672668 230.168934 C 964.28725 110.408511 865.594537 17.49184 743.677864 4.221006 C 668.907027 -3.825869 596.672648 17.330382 540.302854 64.179342 C 525.125769 76.78351 511.563269 90.872052 499.74556 106.189761 C 485.719517 88.75226 469.276808 72.799135 450.677849 58.663717 C 385.849721 9.392881 303.328883 -10.16962 224.063254 5.043923 C 148.990334 19.549132 81.604914 67.976218 39.146578 137.955388 Z M 39.146578 137.955388 " stroke="#9144ee" stroke-width="192" stroke-opacity="1" stroke-miterlimit="4"/></g></g></svg>